<svg xmlns="http://www.w3.org/2000/svg" viewBox="0 0 371.27 180" width="742.54" height="360" role="img" aria-labelledby="t"><title id="t">Tinu.ai</title>
  <defs><linearGradient id="tg" gradientUnits="userSpaceOnUse" x1="60" y1="172" x2="126" y2="86"><stop offset="0" stop-color="#3B51B0"/><stop offset="1" stop-color="#6285E6"/></linearGradient></defs>
  <g fill="url(#tg)"><path d="M96.45 171.3 L96.06 170.74 L95.68 170.07 L95.31 169.34 L94.93 168.55 L94.56 167.71 L94.2 166.82 L93.84 165.89 L93.48 164.94 L93.13 163.96 L92.78 162.98 L92.44 162 L92.1 161.03 L91.76 160.1 L91.43 159.2 L91.39 158.31 L91.37 157.38 L91.35 156.42 L91.34 155.43 L91.33 154.43 L91.33 153.41 L91.34 152.38 L91.35 151.34 L91.36 150.31 L91.37 149.28 L91.38 148.25 L91.39 147.25 L91.4 146.26 L91.4 145.3 L91.47 144.39 L91.54 143.49 L91.62 142.59 L91.7 141.68 L91.78 140.78 L91.86 139.88 L91.94 138.99 L92.03 138.11 L92.1 137.24 L92.18 136.38 L92.25 135.54 L92.31 134.71 L92.37 133.9 L92.42 133.11 L92.49 132.35 L92.56 131.59 L92.63 130.85 L92.69 130.12 L92.74 129.42 L92.78 128.74 L92.83 128.1 L92.86 127.49 L92.89 126.92 L92.91 126.39 L92.93 125.92 L92.94 125.5 L92.95 125.14 L92.95 124.84 L79.05 123.16 L78.98 123.49 L78.89 123.88 L78.81 124.31 L78.72 124.78 L78.63 125.29 L78.53 125.83 L78.42 126.4 L78.32 127 L78.21 127.62 L78.09 128.26 L77.97 128.91 L77.84 129.57 L77.72 130.23 L77.58 130.89 L77.41 131.56 L77.22 132.26 L77.03 133 L76.83 133.78 L76.62 134.58 L76.4 135.41 L76.18 136.26 L75.96 137.13 L75.73 138.03 L75.5 138.94 L75.27 139.86 L75.05 140.8 L74.82 141.75 L74.6 142.7 L74.31 143.63 L74.02 144.58 L73.73 145.55 L73.43 146.55 L73.13 147.56 L72.84 148.59 L72.54 149.62 L72.24 150.66 L71.95 151.7 L71.66 152.74 L71.38 153.77 L71.1 154.79 L70.83 155.8 L70.57 156.8 L70.03 157.79 L69.49 158.81 L68.97 159.84 L68.44 160.87 L67.93 161.89 L67.42 162.89 L66.91 163.86 L66.41 164.78 L65.92 165.65 L65.44 166.45 L64.95 167.17 L64.48 167.79 L64.01 168.29 L63.55 168.7Z"/><path d="M90.84 124.61 L90.48 124.17 L90.06 123.63 L89.59 123 L89.08 122.28 L88.52 121.49 L87.92 120.64 L87.3 119.74 L86.66 118.81 L86 117.86 L85.33 116.89 L84.67 115.93 L84 114.98 L83.35 114.06 L82.72 113.17 L82.11 112.31 L81.49 111.43 L80.86 110.54 L80.22 109.64 L79.58 108.74 L78.93 107.83 L78.28 106.91 L77.63 106 L76.97 105.09 L76.32 104.18 L75.66 103.28 L75.01 102.38 L74.35 101.5 L73.7 100.62 L73.05 99.75 L72.39 98.87 L71.73 98 L71.07 97.14 L70.41 96.29 L69.75 95.45 L69.1 94.62 L68.46 93.8 L67.82 92.99 L67.2 92.2 L66.59 91.42 L66 90.65 L65.42 89.9 L64.87 89.17 L64.33 88.43 L63.78 87.65 L63.23 86.86 L62.68 86.07 L62.14 85.27 L61.6 84.49 L61.08 83.72 L60.58 82.99 L60.11 82.29 L59.66 81.64 L59.24 81.04 L58.86 80.51 L58.53 80.05 L56.9 77.44 L54.23 83.11 L53.95 82.76 L54.18 83.26 L54.46 83.85 L54.78 84.5 L55.13 85.21 L55.51 85.97 L55.92 86.78 L56.35 87.61 L56.79 88.47 L57.25 89.34 L57.72 90.23 L58.19 91.1 L58.66 91.97 L59.13 92.83 L59.6 93.68 L60.08 94.55 L60.57 95.43 L61.08 96.31 L61.6 97.2 L62.12 98.1 L62.65 99.01 L63.18 99.91 L63.71 100.82 L64.24 101.74 L64.77 102.65 L65.29 103.56 L65.8 104.47 L66.3 105.38 L66.79 106.3 L67.3 107.24 L67.8 108.2 L68.31 109.16 L68.82 110.13 L69.33 111.11 L69.84 112.09 L70.35 113.07 L70.85 114.04 L71.35 115.02 L71.85 115.99 L72.33 116.94 L72.81 117.89 L73.28 118.83 L73.74 119.77 L74.22 120.76 L74.72 121.78 L75.22 122.81 L75.72 123.85 L76.22 124.87 L76.7 125.88 L77.16 126.86 L77.6 127.79 L78 128.67 L78.37 129.48 L78.69 130.21 L78.96 130.86 L79.16 131.39Z"/><path d="M89.68 136.05 L90.07 135.66 L90.57 135.2 L91.16 134.67 L91.82 134.09 L92.55 133.46 L93.33 132.79 L94.15 132.09 L95 131.37 L95.86 130.64 L96.73 129.91 L97.59 129.18 L98.43 128.47 L99.24 127.78 L99.99 127.13 L100.73 126.51 L101.47 125.89 L102.22 125.27 L102.98 124.65 L103.75 124.02 L104.52 123.38 L105.29 122.75 L106.06 122.11 L106.83 121.47 L107.6 120.82 L108.36 120.17 L109.1 119.52 L109.84 118.86 L110.56 118.2 L111.27 117.56 L111.96 116.91 L112.64 116.26 L113.31 115.61 L113.96 114.97 L114.6 114.32 L115.23 113.68 L115.84 113.05 L116.44 112.42 L117.03 111.8 L117.61 111.19 L118.17 110.58 L118.72 109.99 L119.26 109.4 L119.83 108.81 L120.4 108.19 L120.98 107.57 L121.55 106.94 L122.12 106.32 L122.67 105.7 L123.2 105.1 L123.71 104.53 L124.18 103.98 L124.62 103.47 L125.02 102.99 L125.38 102.57 L125.67 102.21 L127.82 99.98 L121.42 98.77 L121.77 98.36 L121.39 98.68 L120.97 99.04 L120.51 99.46 L120.01 99.91 L119.48 100.39 L118.92 100.9 L118.34 101.42 L117.75 101.96 L117.14 102.5 L116.54 103.05 L115.93 103.58 L115.33 104.1 L114.74 104.6 L114.13 105.09 L113.5 105.6 L112.87 106.11 L112.23 106.63 L111.59 107.14 L110.93 107.67 L110.27 108.19 L109.6 108.71 L108.93 109.24 L108.24 109.76 L107.55 110.28 L106.85 110.79 L106.15 111.3 L105.44 111.8 L104.71 112.28 L103.96 112.77 L103.19 113.26 L102.41 113.75 L101.6 114.25 L100.79 114.75 L99.96 115.25 L99.12 115.76 L98.27 116.27 L97.42 116.78 L96.57 117.3 L95.71 117.82 L94.85 118.35 L94.01 118.87 L93.14 119.4 L92.24 119.96 L91.3 120.53 L90.34 121.13 L89.38 121.73 L88.42 122.33 L87.47 122.91 L86.56 123.48 L85.68 124.01 L84.86 124.51 L84.1 124.96 L83.41 125.36 L82.82 125.69 L82.32 125.95Z"/></g><path d="M58 178 Q80 164 104 178 L104 186 L58 186 Z" fill="#FFFFFF"/><circle cx="66" cy="32" r="7.15" fill="none" stroke="#F0B93E" stroke-width="2.7" opacity="1.0"/>
    <circle cx="95" cy="41" r="12.32" fill="none" stroke="#B4D63F" stroke-width="4.35" opacity="1.0"/>
    <circle cx="95" cy="41" r="6.09" fill="none" stroke="#B4D63F" stroke-width="1.25" opacity="0.50"/>
    <circle cx="35" cy="57" r="9.78" fill="none" stroke="#E1483B" stroke-width="3.45" opacity="1.0"/>
    <circle cx="35" cy="57" r="4.83" fill="none" stroke="#E1483B" stroke-width="1.25" opacity="0.50"/>
    <circle cx="62" cy="61" r="13.18" fill="none" stroke="#E8843A" stroke-width="4.65" opacity="1.0"/>
    <circle cx="62" cy="61" r="6.51" fill="none" stroke="#E8843A" stroke-width="1.25" opacity="0.50"/>
    <circle cx="121" cy="52" r="8.07" fill="none" stroke="#46B7E0" stroke-width="2.85" opacity="1.0"/>
    <circle cx="138" cy="73" r="8.93" fill="none" stroke="#2E74D0" stroke-width="3.15" opacity="1.0"/>
    <circle cx="138" cy="73" r="4.41" fill="none" stroke="#2E74D0" stroke-width="1.25" opacity="0.50"/>
    <circle cx="43" cy="87" r="11.9" fill="none" stroke="#DE3389" stroke-width="4.2" opacity="1.0"/>
    <circle cx="43" cy="87" r="5.88" fill="none" stroke="#DE3389" stroke-width="1.25" opacity="0.50"/>
    <circle cx="101" cy="82" r="17.85" fill="none" stroke="#9ED139" stroke-width="6.3" opacity="1.0"/>
    <circle cx="101" cy="82" r="8.82" fill="none" stroke="#9ED139" stroke-width="1.25" opacity="0.50"/><g transform="translate(176 67) scale(1.15)"><path d="M14.01 40V0.85H21.76V40ZM1.25 6.9V0H34.54V6.9Z M37.67 40V12.52H45.15V40ZM41.41 8.11Q39.6 8.11 38.41 6.88Q37.21 5.65 37.21 3.84Q37.21 2.03 38.41 0.8Q39.6 -0.43 41.41 -0.43Q43.27 -0.43 44.44 0.8Q45.6 2.03 45.6 3.84Q45.6 5.65 44.44 6.88Q43.27 8.11 41.41 8.11Z M68.82 40V24.25Q68.82 21.79 67.28 20.25Q65.75 18.71 63.35 18.71Q61.72 18.71 60.47 19.4Q59.22 20.1 58.51 21.36Q57.81 22.62 57.81 24.25L54.89 22.75Q54.89 19.54 56.29 17.12Q57.7 14.69 60.17 13.32Q62.64 11.95 65.76 11.95Q68.81 11.95 71.19 13.46Q73.57 14.96 74.94 17.4Q76.3 19.83 76.3 22.59V40ZM50.33 40V12.52H57.81V40Z M92.62 40.6Q89.01 40.6 86.18 39.05Q83.36 37.5 81.77 34.76Q80.18 32.03 80.18 28.46V12.52H87.67V28.28Q87.67 29.99 88.25 31.2Q88.83 32.41 89.96 33.06Q91.08 33.71 92.63 33.71Q94.96 33.71 96.26 32.29Q97.55 30.87 97.55 28.28V12.52H105.04V28.46Q105.04 32.08 103.46 34.81Q101.88 37.54 99.08 39.07Q96.28 40.6 92.62 40.6Z" fill="#132B27"/><path d="M114.62 40.6Q112.59 40.6 111.27 39.22Q109.96 37.85 109.96 35.87Q109.96 33.84 111.27 32.49Q112.59 31.14 114.62 31.14Q116.66 31.14 117.97 32.49Q119.27 33.84 119.27 35.87Q119.27 37.85 117.97 39.22Q116.66 40.6 114.62 40.6Z M136.36 40.57Q132.6 40.57 129.61 38.69Q126.61 36.81 124.89 33.58Q123.16 30.36 123.16 26.3Q123.16 22.2 124.89 18.97Q126.61 15.73 129.61 13.84Q132.6 11.95 136.36 11.95Q139.32 11.95 141.65 13.16Q143.98 14.37 145.4 16.49Q146.81 18.61 146.91 21.31V31.21Q146.81 33.91 145.42 36.03Q144.03 38.15 141.67 39.36Q139.32 40.57 136.36 40.57ZM137.75 33.68Q140.88 33.68 142.8 31.6Q144.72 29.52 144.72 26.26Q144.72 24.07 143.85 22.4Q142.99 20.73 141.42 19.78Q139.86 18.83 137.77 18.83Q135.72 18.83 134.15 19.78Q132.59 20.73 131.69 22.4Q130.78 24.08 130.78 26.26Q130.78 28.44 131.68 30.11Q132.57 31.79 134.15 32.74Q135.72 33.68 137.75 33.68ZM144.34 40V32.62L145.53 25.92L144.34 19.27V12.52H151.75V40Z M156.93 40V12.52H164.41V40ZM160.67 8.11Q158.86 8.11 157.67 6.88Q156.47 5.65 156.47 3.84Q156.47 2.03 157.67 0.8Q158.86 -0.43 160.67 -0.43Q162.53 -0.43 163.7 0.8Q164.86 2.03 164.86 3.84Q164.86 5.65 163.7 6.88Q162.53 8.11 160.67 8.11Z" fill="#4C6E68"/></g>
</svg>
